<?xml version="1.0" encoding="UTF-8"?>
<svg id="Capa_1" data-name="Capa 1" xmlns="http://www.w3.org/2000/svg" viewBox="0 0 524.7 162.04">
  <defs>
    <style>
      .cls-1 {
        fill: #e9e9e9;
      }
    </style>
  </defs>
  <path class="cls-1" d="M137.12,122.91h11.9v2.74h-9.08v4.54h8.05v2.77h-8.05v4.66h9.19v2.74h-12.01v-17.45Z"/>
  <path class="cls-1" d="M160.57,137.82l1.7-2.19c1.54,1.45,3.09,2.27,5.07,2.27,1.74,0,2.84-.9,2.84-2.19v-.05c0-1.25-.64-1.92-3.62-2.67-3.42-.9-5.34-1.99-5.34-5.21v-.05c0-2.99,2.29-5.06,5.48-5.06,2.34,0,4.2.77,5.82,2.19l-1.51,2.32c-1.44-1.17-2.89-1.8-4.36-1.8-1.65,0-2.61.92-2.61,2.07v.05c0,1.35.73,1.94,3.83,2.74,3.39.9,5.14,2.22,5.14,5.11v.05c0,3.26-2.36,5.21-5.73,5.21-2.45,0-4.77-.92-6.69-2.79Z"/>
  <path class="cls-1" d="M189.1,125.75h-5.11v-2.84h13.05v2.84h-5.11v14.61h-2.82v-14.61Z"/>
  <path class="cls-1" d="M209.14,122.91h7.15c2.02,0,3.6.65,4.63,1.74.85.95,1.33,2.24,1.33,3.76v.05c0,2.87-1.58,4.59-3.81,5.28l4.33,6.6h-3.35l-3.94-6.08h-3.53v6.08h-2.82v-17.45ZM216.09,131.56c2.02,0,3.3-1.15,3.3-2.92v-.05c0-1.87-1.24-2.89-3.32-2.89h-4.1v5.86h4.13Z"/>
  <path class="cls-1" d="M240.58,122.79h2.61l7.06,17.57h-2.98l-1.63-4.21h-7.59l-1.65,4.21h-2.89l7.06-17.57ZM244.61,133.43l-2.77-6.98-2.75,6.98h5.52Z"/>
  <path class="cls-1" d="M264.06,125.75h-5.11v-2.84h13.05v2.84h-5.11v14.61h-2.82v-14.61Z"/>
  <path class="cls-1" d="M284.1,122.91h11.9v2.74h-9.08v4.54h8.05v2.77h-8.05v4.66h9.19v2.74h-12.01v-17.45Z"/>
  <path class="cls-1" d="M307.92,131.69v-.05c0-4.89,3.44-9.02,8.28-9.02,2.8,0,4.52.85,6.17,2.37l-1.79,2.32c-1.24-1.12-2.45-1.84-4.49-1.84-2.96,0-5.2,2.79-5.2,6.13v.05c0,3.59,2.18,6.23,5.46,6.23,1.51,0,2.89-.52,3.88-1.32v-3.24h-4.1v-2.69h6.83v7.33c-1.58,1.47-3.85,2.72-6.69,2.72-5.02,0-8.32-3.89-8.32-8.97Z"/>
  <path class="cls-1" d="M335.94,122.91h2.82v17.45h-2.82v-17.45Z"/>
  <path class="cls-1" d="M357.91,122.79h2.61l7.06,17.57h-2.98l-1.63-4.21h-7.59l-1.65,4.21h-2.89l7.06-17.57ZM361.94,133.43l-2.77-6.98-2.75,6.98h5.52Z"/>
  <path class="cls-1" d="M395.56,122.91h11.94v2.79h-9.12v4.76h8.09v2.79h-8.09v7.1h-2.82v-17.45Z"/>
  <path class="cls-1" d="M419.93,122.91h2.82v17.45h-2.82v-17.45Z"/>
  <path class="cls-1" d="M435.13,137.82l1.7-2.19c1.54,1.45,3.09,2.27,5.07,2.27,1.74,0,2.84-.9,2.84-2.19v-.05c0-1.25-.64-1.92-3.62-2.67-3.42-.9-5.34-1.99-5.34-5.21v-.05c0-2.99,2.29-5.06,5.48-5.06,2.34,0,4.2.77,5.82,2.19l-1.51,2.32c-1.44-1.17-2.89-1.8-4.36-1.8-1.65,0-2.61.92-2.61,2.07v.05c0,1.35.73,1.94,3.83,2.74,3.39.9,5.14,2.22,5.14,5.11v.05c0,3.26-2.36,5.21-5.73,5.21-2.45,0-4.77-.92-6.69-2.79Z"/>
  <path class="cls-1" d="M459.35,131.69v-.05c0-4.96,3.42-9.02,8.25-9.02,2.98,0,4.77,1.12,6.31,2.72l-1.81,2.27c-1.31-1.3-2.66-2.14-4.52-2.14-3.03,0-5.27,2.72-5.27,6.13v.05c0,3.41,2.22,6.18,5.3,6.18,1.97,0,3.23-.85,4.61-2.24l1.81,1.99c-1.67,1.89-3.51,3.09-6.51,3.09-4.7,0-8.16-3.96-8.16-8.97Z"/>
  <path class="cls-1" d="M491.84,122.79h2.61l7.06,17.57h-2.98l-1.63-4.21h-7.59l-1.65,4.21h-2.89l7.06-17.57ZM495.87,133.43l-2.77-6.98-2.75,6.98h5.53Z"/>
  <path class="cls-1" d="M513.44,122.91h2.82v14.65h8.44v2.79h-11.26v-17.45Z"/>
  <path class="cls-1" d="M137.12,23.1h11.95c9.77,0,16.24,5.97,16.24,32.49s-6.46,32.32-16.24,32.32h-11.95V23.1ZM148.51,84.22c5.49,0,7.59-1.76,7.59-28.63s-2.1-28.89-7.59-28.89h-2.5v57.52h2.5Z"/>
  <path class="cls-1" d="M185.91,23.1h8.97v64.81h-8.97V23.1Z"/>
  <path class="cls-1" d="M216.52,23.1h21v3.6h-11.95v26.08h10.34v3.69h-10.34v27.75h12.2v3.69h-21.24V23.1Z"/>
  <path class="cls-1" d="M255.46,55.51c0-26.61,5.09-32.84,17.93-32.84,2.83,0,5.33.44,7.83.79v3.34c-1.86-.09-4.04-.26-6.06-.26-10.42,0-10.5,6.24-10.5,28.98s.24,28.8,7.27,28.8c.32,0,1.37,0,1.7-.09v-28.01h-4.52v-3.6h13.17v34.6c-2.83.88-7.67,1.14-11.23,1.14-10.42,0-15.59-4.57-15.59-32.84Z"/>
  <path class="cls-1" d="M302.15,55.51c0-25.73,5.09-32.93,14.62-32.93s14.62,7.2,14.62,32.93-5.09,32.93-14.62,32.93-14.62-7.2-14.62-32.93ZM322.18,55.51c0-25.99-.97-29.51-5.41-29.51s-5.41,3.51-5.41,29.51.97,29.51,5.41,29.51,5.41-3.6,5.41-29.51Z"/>
  <path class="cls-1" d="M378.89,23.1h11.95c9.77,0,16.24,5.97,16.24,32.49s-6.46,32.32-16.24,32.32h-11.95V23.1ZM390.28,84.22c5.49,0,7.59-1.76,7.59-28.63s-2.1-28.89-7.59-28.89h-2.5v57.52h2.5Z"/>
  <path class="cls-1" d="M427.68,23.1h8.97v64.81h-8.97V23.1ZM432.45,5.8h8.16l-8.08,14.23h-2.5l2.42-14.23Z"/>
  <path class="cls-1" d="M465.73,23.1h7.51l10.34,64.81h-8.97l-2.66-16.77h-9.94l-2.42,16.77h-3.63l9.77-64.81ZM462.58,67.45h8.81l-4.52-29.24-4.28,29.24Z"/>
  <path class="cls-1" d="M501.84,23.1h22.37v3.6l-13.57,57.52h14.06v3.69h-23.51v-3.69l13.49-57.52h-12.84v-3.6Z"/>
  <path class="cls-1" d="M33.92,49.12v36.74c0,3.45,2.56,6.25,5.73,6.25v-45.25h-8.99v.87h1.98c.7,0,1.28.62,1.28,1.39Z"/>
  <path class="cls-1" d="M22.04,69.43h-3.26v.87h1.98c.7,0,1.28.62,1.28,1.39v36.74c0,3.45,2.57,6.25,5.73,6.25v-45.25h-5.73Z"/>
  <path class="cls-1" d="M45.04,69.33v1.19c6,3.13,9.53,11.27,9.53,21.3,0,13.38-6.27,21.88-16.3,21.88h-4.96v.91c2.02.04,3.88.08,5.36.08,13.2,0,22.05-9.29,22.05-23.19,0-11.48-6.04-19.69-15.67-22.16Z"/>
  <path class="cls-1" d="M50.66,46.76c-1.46,0-3.3.04-5.29.08v.9h4.9c9.9,0,16.08,8.38,16.08,21.58,0,5.49-1.07,10.4-3.04,14.22.37,1.47.63,3,.77,4.59,5.24-3.9,8.32-10.36,8.32-18.48,0-13.71-8.73-22.88-21.75-22.88Z"/>
  <path class="cls-1" d="M69.68,108.79c-1.5,0-2.72,1.33-2.72,2.97s1.22,2.97,2.72,2.97,2.72-1.33,2.72-2.97-1.22-2.97-2.72-2.97Z"/>
  <path class="cls-1" d="M45.6,157.44c-23.02,0-41.75-18.73-41.75-41.76V46.36C3.84,23.33,22.57,4.6,45.59,4.6s41.75,18.73,41.75,41.75v69.33c0,23.02-18.73,41.76-41.75,41.76ZM45.6,5.25C22.93,5.25,4.49,23.69,4.49,46.36v69.33c0,22.67,18.44,41.11,41.11,41.11h0c22.67,0,41.11-18.44,41.11-41.11V46.36c0-22.67-18.44-41.11-41.11-41.11Z"/>
  <path class="cls-1" d="M45.6,162.04c-25.14,0-45.6-20.45-45.6-45.6V45.59C0,20.45,20.45,0,45.59,0s45.6,20.45,45.6,45.59v70.85c0,25.14-20.45,45.6-45.59,45.6ZM45.6,1.29C21.17,1.29,1.29,21.16,1.29,45.59v70.85c0,24.43,19.87,44.3,44.3,44.3h0c24.43,0,44.3-19.88,44.3-44.3V45.59C89.9,21.16,70.02,1.29,45.6,1.29Z"/>
</svg>